# xmcd CD database file
#
# Track frame offsets:
#	150
#	33465
#	70390
#	105782
#	127715
#	161381
#	186428
#	228286
#	257971
#
# Disc length: 3988 seconds
#
# Revision: 0
# Processed by: cddbd v1.5.2PL0 Copyright (c) Steve Scherf et al.
# Submitted via: CDex 1.51
#
DISCID=6d0f9209
DTITLE=Javier vercher - Wish you were here
DYEAR=2009
DGENRE=Jazz
TTITLE0=Vivi
TTITLE1=Wish you were here
TTITLE2=Magicians of sound
TTITLE3=Ears of a distant traveler
TTITLE4=Blue Heron
TTITLE5=Ahi donde vive Joe
TTITLE6=Style and Grace
TTITLE7=Turning towards kindness 
TTITLE8=Rio blanco
EXTD=YEAR: 2009
EXTT0=
EXTT1=
EXTT2=
EXTT3=
EXTT4=
EXTT5=
EXTT6=
EXTT7=
EXTT8=
PLAYORDER=
